<svg id="Layer_1" data-name="Layer 1" xmlns="http://www.w3.org/2000/svg" viewBox="0 0 512 512">
<title>microscope-flat</title><circle cx="256" cy="256" r="256" fill="#f3eeda"/>
<polygon points="251.93 204.38 238.98 217.92 273.34 250.84 286.3 237.32 251.93 204.38" fill="#98d3cb"/>
<path d="M362.63,123.24a31.64,31.64,0,0,0-44.74,1L363.59,168A31.64,31.64,0,0,0,362.63,123.24Z" fill="#98d3cb"/>
<path d="M377.28,254.78A104.41,104.41,0,0,0,349,183.19l10.9-11.38L314.21,128l-64.09,66.9,45.7,43.78,39.77-41.52A85.42,85.42,0,0,1,314,329.51a27.41,27.41,0,0,0-17.49-6.39c-15.78,0-28.58,13.6-28.58,30.36v25.35c0,.34,0,.66,0,1H134.72v17.72H336.23V379.84H325c0-.34,0-.66,0-1V353.49a32,32,0,0,0-.93-7.55A104.84,104.84,0,0,0,377.28,254.78Z" fill="#98d3cb"/>
<polygon points="294.2 306.42 288.52 306.42 288.52 302.93 152.61 302.93 152.61 306.42 146.92 306.42 146.92 316.55 294.2 316.55 294.2 306.42" fill="#98d3cb"/>
</svg>