<svg id="Layer_1" data-name="Layer 1" xmlns="http://www.w3.org/2000/svg" viewBox="0 0 512 512"><title>lungs-flat</title><path d="M0,256C0,114.61,114.61,0,256,0S512,114.63,512,256,397.38,512,256,512,0,397.39,0,256Z" fill="#00c7ff"/><path d="M162.6,200.75c-29.67,39.05-35.77,104.93-37.19,130.33a20.84,20.84,0,0,0,7.52,17.41,21.09,21.09,0,0,0,16.47,4.25l57-8c33.39-5.17,26.33-63.52,27.27-86.58,5.64-5.65,12.26-14.12,21.66-23.06,9.89,9.88,17.87,18.36,24,24.47.94,22.58-6.58,80,26.37,85.17l56.93,8a21.05,21.05,0,0,0,16.47-4.25,20.64,20.64,0,0,0,7.52-17.41c-.93-25.41-7.06-91.28-36.7-130.33-66.82-88-72.92-19.77-71,47-7.55-8.93-14.59-17.41-15.08-17.88l.49-49.87h-16l-.94,49.87c.94-.94-6.09,7.07-14.1,16,1.88-66.35-4.71-132.23-70.59-45.17Z" fill="#fff" fill-rule="evenodd"/></svg>